<mxfile host="app.diagrams.net" modified="2022-01-04T14:26:20.029Z" agent="5.0 (Windows NT 10.0; WOW64) AppleWebKit/537.36 (KHTML, like Gecko) Chrome/96.0.4664.110 Safari/537.36" etag="Gyw8I7QLO-xi5yanbhUR" version="15.5.0" type="github">
  <diagram id="kgpKYQtTHZ0yAKxKKP6v" name="Page-1">
    <mxGraphModel dx="2738" dy="1647" grid="1" gridSize="10" guides="1" tooltips="1" connect="1" arrows="1" fold="1" page="1" pageScale="1" pageWidth="850" pageHeight="1100" math="0" shadow="0">
      <root>
        <mxCell id="0" />
        <mxCell id="1" parent="0" />
        <mxCell id="EOrvkw3zUfeiwgOwcYgM-18" value="Aplikacja mobilna" style="swimlane;fillColor=#d5e8d4;strokeColor=#82b366;gradientColor=#97d077;" vertex="1" parent="1">
          <mxGeometry x="180" y="40" width="380" height="330" as="geometry" />
        </mxCell>
        <mxCell id="EOrvkw3zUfeiwgOwcYgM-20" value="Serwer" style="swimlane;startSize=20;fillColor=#fff2cc;strokeColor=#d6b656;gradientColor=#ffd966;" vertex="1" parent="EOrvkw3zUfeiwgOwcYgM-18">
          <mxGeometry x="20" y="40" width="160" height="100" as="geometry" />
        </mxCell>
        <mxCell id="EOrvkw3zUfeiwgOwcYgM-5" value="Baza danych&amp;nbsp;" style="rounded=0;whiteSpace=wrap;html=1;fillColor=#f8cecc;strokeColor=#b85450;gradientColor=#ea6b66;fontStyle=1" vertex="1" parent="EOrvkw3zUfeiwgOwcYgM-20">
          <mxGeometry x="20" y="30" width="120" height="60" as="geometry" />
        </mxCell>
        <mxCell id="EOrvkw3zUfeiwgOwcYgM-21" value="Zdjęcia i grafiki" style="swimlane;startSize=20;fillColor=#fff2cc;strokeColor=#d6b656;gradientColor=#ffd966;" vertex="1" parent="EOrvkw3zUfeiwgOwcYgM-18">
          <mxGeometry x="200" y="40" width="160" height="170" as="geometry" />
        </mxCell>
        <mxCell id="EOrvkw3zUfeiwgOwcYgM-9" value="Ikony" style="rounded=0;whiteSpace=wrap;html=1;fillColor=#f8cecc;strokeColor=#b85450;gradientColor=#ea6b66;fontStyle=1" vertex="1" parent="EOrvkw3zUfeiwgOwcYgM-21">
          <mxGeometry x="20" y="30" width="120" height="60" as="geometry" />
        </mxCell>
        <mxCell id="EOrvkw3zUfeiwgOwcYgM-10" value="Logo" style="rounded=0;whiteSpace=wrap;html=1;fillColor=#f8cecc;strokeColor=#b85450;gradientColor=#ea6b66;fontStyle=1" vertex="1" parent="EOrvkw3zUfeiwgOwcYgM-21">
          <mxGeometry x="20" y="100" width="120" height="60" as="geometry" />
        </mxCell>
        <mxCell id="EOrvkw3zUfeiwgOwcYgM-13" value="Oprogramowanie" style="rounded=0;whiteSpace=wrap;html=1;fillColor=#fff2cc;strokeColor=#d6b656;gradientColor=#ffd966;fontStyle=1" vertex="1" parent="EOrvkw3zUfeiwgOwcYgM-18">
          <mxGeometry x="20" y="250" width="120" height="60" as="geometry" />
        </mxCell>
        <mxCell id="EOrvkw3zUfeiwgOwcYgM-22" value="" style="endArrow=classic;html=1;rounded=0;edgeStyle=orthogonalEdgeStyle;entryX=0.5;entryY=1;entryDx=0;entryDy=0;" edge="1" parent="EOrvkw3zUfeiwgOwcYgM-18" target="EOrvkw3zUfeiwgOwcYgM-21">
          <mxGeometry width="50" height="50" relative="1" as="geometry">
            <mxPoint x="140" y="280" as="sourcePoint" />
            <mxPoint x="190" y="230" as="targetPoint" />
          </mxGeometry>
        </mxCell>
        <mxCell id="EOrvkw3zUfeiwgOwcYgM-24" value="Implementacja" style="text;html=1;strokeColor=none;fillColor=none;align=center;verticalAlign=middle;whiteSpace=wrap;rounded=0;strokeWidth=1;fontStyle=0" vertex="1" parent="EOrvkw3zUfeiwgOwcYgM-18">
          <mxGeometry x="180" y="250" width="60" height="30" as="geometry" />
        </mxCell>
        <mxCell id="EOrvkw3zUfeiwgOwcYgM-7" value="Sklep mobilny" style="rounded=0;whiteSpace=wrap;html=1;fillColor=#cce5ff;strokeColor=#36393d;fontStyle=1" vertex="1" parent="1">
          <mxGeometry x="660" y="175" width="120" height="60" as="geometry" />
        </mxCell>
        <mxCell id="EOrvkw3zUfeiwgOwcYgM-19" style="edgeStyle=orthogonalEdgeStyle;rounded=0;orthogonalLoop=1;jettySize=auto;html=1;exitX=0.5;exitY=1;exitDx=0;exitDy=0;" edge="1" parent="1">
          <mxGeometry relative="1" as="geometry">
            <mxPoint x="160" y="180" as="sourcePoint" />
            <mxPoint x="160" y="180" as="targetPoint" />
          </mxGeometry>
        </mxCell>
        <mxCell id="EOrvkw3zUfeiwgOwcYgM-23" value="" style="endArrow=classic;html=1;rounded=0;edgeStyle=orthogonalEdgeStyle;entryX=0;entryY=0.5;entryDx=0;entryDy=0;" edge="1" parent="1" target="EOrvkw3zUfeiwgOwcYgM-7">
          <mxGeometry width="50" height="50" relative="1" as="geometry">
            <mxPoint x="560" y="205" as="sourcePoint" />
            <mxPoint x="610" y="150" as="targetPoint" />
          </mxGeometry>
        </mxCell>
        <mxCell id="EOrvkw3zUfeiwgOwcYgM-25" value="Udostępnianie zasobów" style="text;html=1;strokeColor=none;fillColor=none;align=center;verticalAlign=middle;whiteSpace=wrap;rounded=0;" vertex="1" parent="1">
          <mxGeometry x="580" y="170" width="60" height="30" as="geometry" />
        </mxCell>
        <mxCell id="EOrvkw3zUfeiwgOwcYgM-26" value="System GPS" style="swimlane;strokeWidth=1;gradientColor=#97d077;fillColor=#d5e8d4;strokeColor=#82b366;" vertex="1" parent="1">
          <mxGeometry x="270" y="460" width="200" height="230" as="geometry" />
        </mxCell>
        <mxCell id="EOrvkw3zUfeiwgOwcYgM-27" value="Interface GPS" style="swimlane;strokeWidth=1;fontStyle=1;gradientColor=#ffd966;fillColor=#fff2cc;strokeColor=#d6b656;" vertex="1" parent="EOrvkw3zUfeiwgOwcYgM-26">
          <mxGeometry x="20" y="40" width="160" height="170" as="geometry" />
        </mxCell>
        <mxCell id="EOrvkw3zUfeiwgOwcYgM-28" value="Lokalizacja pojazdów" style="rounded=0;whiteSpace=wrap;html=1;strokeWidth=1;fontStyle=1;gradientColor=#ea6b66;fillColor=#f8cecc;strokeColor=#b85450;" vertex="1" parent="EOrvkw3zUfeiwgOwcYgM-27">
          <mxGeometry x="20" y="30" width="120" height="60" as="geometry" />
        </mxCell>
        <mxCell id="EOrvkw3zUfeiwgOwcYgM-29" value="Lokalizacja klientów" style="rounded=0;whiteSpace=wrap;html=1;strokeWidth=1;fontStyle=1;gradientColor=#ea6b66;fillColor=#f8cecc;strokeColor=#b85450;" vertex="1" parent="EOrvkw3zUfeiwgOwcYgM-27">
          <mxGeometry x="20" y="100" width="120" height="60" as="geometry" />
        </mxCell>
        <mxCell id="EOrvkw3zUfeiwgOwcYgM-30" value="" style="endArrow=classic;html=1;rounded=0;edgeStyle=orthogonalEdgeStyle;exitX=0.5;exitY=0;exitDx=0;exitDy=0;entryX=0.5;entryY=1;entryDx=0;entryDy=0;" edge="1" parent="1" source="EOrvkw3zUfeiwgOwcYgM-26" target="EOrvkw3zUfeiwgOwcYgM-18">
          <mxGeometry width="50" height="50" relative="1" as="geometry">
            <mxPoint x="360" y="440" as="sourcePoint" />
            <mxPoint x="410" y="390" as="targetPoint" />
          </mxGeometry>
        </mxCell>
        <mxCell id="EOrvkw3zUfeiwgOwcYgM-32" value="Przesył danych" style="text;html=1;strokeColor=none;fillColor=none;align=center;verticalAlign=middle;whiteSpace=wrap;rounded=0;" vertex="1" parent="1">
          <mxGeometry x="370" y="400" width="60" height="30" as="geometry" />
        </mxCell>
        <mxCell id="EOrvkw3zUfeiwgOwcYgM-33" value="Integracja i synchronizacja map" style="swimlane;strokeWidth=1;gradientColor=#97d077;fillColor=#d5e8d4;strokeColor=#82b366;" vertex="1" parent="1">
          <mxGeometry x="-270" y="460" width="420" height="340" as="geometry" />
        </mxCell>
        <mxCell id="EOrvkw3zUfeiwgOwcYgM-34" value="Wsparcie kierowcy" style="swimlane;strokeWidth=1;gradientColor=#ffd966;fillColor=#fff2cc;strokeColor=#d6b656;" vertex="1" parent="EOrvkw3zUfeiwgOwcYgM-33">
          <mxGeometry x="20" y="45" width="160" height="170" as="geometry" />
        </mxCell>
        <mxCell id="EOrvkw3zUfeiwgOwcYgM-35" value="Integracja MapKit (iOS)" style="rounded=0;whiteSpace=wrap;html=1;strokeWidth=1;gradientColor=#ea6b66;fillColor=#f8cecc;strokeColor=#b85450;fontStyle=1" vertex="1" parent="EOrvkw3zUfeiwgOwcYgM-34">
          <mxGeometry x="20" y="30" width="120" height="60" as="geometry" />
        </mxCell>
        <mxCell id="EOrvkw3zUfeiwgOwcYgM-36" value="Integracja GoogleMaps API (Android)" style="rounded=0;whiteSpace=wrap;html=1;strokeWidth=1;gradientColor=#ea6b66;fillColor=#f8cecc;strokeColor=#b85450;fontStyle=1" vertex="1" parent="EOrvkw3zUfeiwgOwcYgM-34">
          <mxGeometry x="20" y="100" width="120" height="60" as="geometry" />
        </mxCell>
        <mxCell id="EOrvkw3zUfeiwgOwcYgM-37" value="Identyfikacja lokalizacji urządzenia" style="swimlane;strokeWidth=1;gradientColor=#ffd966;fillColor=#fff2cc;strokeColor=#d6b656;" vertex="1" parent="EOrvkw3zUfeiwgOwcYgM-33">
          <mxGeometry x="200" y="45" width="200" height="170" as="geometry" />
        </mxCell>
        <mxCell id="EOrvkw3zUfeiwgOwcYgM-38" value="CoreLocation (iOS)" style="rounded=0;whiteSpace=wrap;html=1;strokeWidth=1;gradientColor=#ea6b66;fillColor=#f8cecc;strokeColor=#b85450;fontStyle=1" vertex="1" parent="EOrvkw3zUfeiwgOwcYgM-37">
          <mxGeometry x="40" y="30" width="120" height="60" as="geometry" />
        </mxCell>
        <mxCell id="EOrvkw3zUfeiwgOwcYgM-39" value="Lokalizacja Google API (Android)" style="rounded=0;whiteSpace=wrap;html=1;strokeWidth=1;gradientColor=#ea6b66;fillColor=#f8cecc;strokeColor=#b85450;fontStyle=1" vertex="1" parent="EOrvkw3zUfeiwgOwcYgM-37">
          <mxGeometry x="40" y="100" width="120" height="60" as="geometry" />
        </mxCell>
        <mxCell id="EOrvkw3zUfeiwgOwcYgM-40" value="GoogleMaps &lt;br&gt;(iOS i Android)" style="rounded=0;whiteSpace=wrap;html=1;strokeWidth=1;gradientColor=#ffd966;fillColor=#fff2cc;strokeColor=#d6b656;fontStyle=1" vertex="1" parent="EOrvkw3zUfeiwgOwcYgM-33">
          <mxGeometry x="150" y="240" width="120" height="60" as="geometry" />
        </mxCell>
        <mxCell id="EOrvkw3zUfeiwgOwcYgM-41" value="" style="endArrow=classic;html=1;rounded=0;edgeStyle=orthogonalEdgeStyle;" edge="1" parent="1">
          <mxGeometry width="50" height="50" relative="1" as="geometry">
            <mxPoint x="150" y="630" as="sourcePoint" />
            <mxPoint x="270" y="630" as="targetPoint" />
          </mxGeometry>
        </mxCell>
        <mxCell id="EOrvkw3zUfeiwgOwcYgM-42" value="Przesył danych" style="text;html=1;strokeColor=none;fillColor=none;align=center;verticalAlign=middle;whiteSpace=wrap;rounded=0;" vertex="1" parent="1">
          <mxGeometry x="160" y="600" width="90" height="30" as="geometry" />
        </mxCell>
        <mxCell id="EOrvkw3zUfeiwgOwcYgM-43" value="Wsparcie" style="text;html=1;strokeColor=none;fillColor=none;align=center;verticalAlign=middle;whiteSpace=wrap;rounded=0;" vertex="1" parent="1">
          <mxGeometry x="175" y="630" width="60" height="30" as="geometry" />
        </mxCell>
        <mxCell id="EOrvkw3zUfeiwgOwcYgM-44" value="Strona WWW" style="swimlane;strokeWidth=1;gradientColor=#97d077;fillColor=#d5e8d4;strokeColor=#82b366;" vertex="1" parent="1">
          <mxGeometry x="-530" y="-410" width="580" height="520" as="geometry" />
        </mxCell>
        <mxCell id="EOrvkw3zUfeiwgOwcYgM-53" value="Serwer webowy" style="swimlane;strokeWidth=1;gradientColor=#ffd966;fillColor=#fff2cc;strokeColor=#d6b656;" vertex="1" parent="EOrvkw3zUfeiwgOwcYgM-44">
          <mxGeometry x="20" y="40" width="200" height="220" as="geometry" />
        </mxCell>
        <mxCell id="EOrvkw3zUfeiwgOwcYgM-54" value="Kod HTML" style="swimlane;strokeWidth=1;gradientColor=#ea6b66;fillColor=#f8cecc;strokeColor=#b85450;" vertex="1" parent="EOrvkw3zUfeiwgOwcYgM-53">
          <mxGeometry x="20" y="35" width="160" height="105" as="geometry" />
        </mxCell>
        <mxCell id="EOrvkw3zUfeiwgOwcYgM-55" value="Projekt graficzny" style="rounded=0;whiteSpace=wrap;html=1;strokeWidth=1;gradientColor=#d5739d;fillColor=#e6d0de;strokeColor=#996185;fontStyle=1" vertex="1" parent="EOrvkw3zUfeiwgOwcYgM-54">
          <mxGeometry x="20" y="35" width="120" height="60" as="geometry" />
        </mxCell>
        <mxCell id="EOrvkw3zUfeiwgOwcYgM-56" value="Baza danych" style="rounded=0;whiteSpace=wrap;html=1;strokeWidth=1;gradientColor=#ea6b66;fillColor=#f8cecc;strokeColor=#b85450;fontStyle=1" vertex="1" parent="EOrvkw3zUfeiwgOwcYgM-53">
          <mxGeometry x="40" y="150" width="120" height="60" as="geometry" />
        </mxCell>
        <mxCell id="EOrvkw3zUfeiwgOwcYgM-57" value="Zdjęcia i grafiki" style="swimlane;startSize=20;fillColor=#fff2cc;strokeColor=#d6b656;gradientColor=#ffd966;" vertex="1" parent="EOrvkw3zUfeiwgOwcYgM-44">
          <mxGeometry x="240" y="40" width="160" height="170" as="geometry" />
        </mxCell>
        <mxCell id="EOrvkw3zUfeiwgOwcYgM-58" value="Ikony" style="rounded=0;whiteSpace=wrap;html=1;fillColor=#f8cecc;strokeColor=#b85450;gradientColor=#ea6b66;fontStyle=1" vertex="1" parent="EOrvkw3zUfeiwgOwcYgM-57">
          <mxGeometry x="20" y="30" width="120" height="60" as="geometry" />
        </mxCell>
        <mxCell id="EOrvkw3zUfeiwgOwcYgM-59" value="Logo" style="rounded=0;whiteSpace=wrap;html=1;fillColor=#f8cecc;strokeColor=#b85450;gradientColor=#ea6b66;fontStyle=1" vertex="1" parent="EOrvkw3zUfeiwgOwcYgM-57">
          <mxGeometry x="20" y="100" width="120" height="60" as="geometry" />
        </mxCell>
        <mxCell id="EOrvkw3zUfeiwgOwcYgM-60" value="Domena internetowa" style="rounded=0;whiteSpace=wrap;html=1;strokeWidth=1;gradientColor=#ffd966;fillColor=#fff2cc;strokeColor=#d6b656;fontStyle=1" vertex="1" parent="EOrvkw3zUfeiwgOwcYgM-44">
          <mxGeometry x="420" y="40" width="120" height="60" as="geometry" />
        </mxCell>
        <mxCell id="EOrvkw3zUfeiwgOwcYgM-61" value="Łącze internetowe" style="rounded=0;whiteSpace=wrap;html=1;strokeWidth=1;gradientColor=#ffd966;fillColor=#fff2cc;strokeColor=#d6b656;fontStyle=1" vertex="1" parent="EOrvkw3zUfeiwgOwcYgM-44">
          <mxGeometry x="420" y="120" width="120" height="60" as="geometry" />
        </mxCell>
        <mxCell id="EOrvkw3zUfeiwgOwcYgM-62" value="Wymagania&lt;br&gt;bezpieczeństwa" style="rounded=0;whiteSpace=wrap;html=1;strokeWidth=1;gradientColor=#ffd966;fillColor=#fff2cc;strokeColor=#d6b656;fontStyle=1" vertex="1" parent="EOrvkw3zUfeiwgOwcYgM-44">
          <mxGeometry x="420" y="200" width="120" height="60" as="geometry" />
        </mxCell>
        <mxCell id="EOrvkw3zUfeiwgOwcYgM-63" value="Backup" style="rounded=0;whiteSpace=wrap;html=1;strokeWidth=1;gradientColor=#ffd966;fillColor=#fff2cc;strokeColor=#d6b656;fontStyle=1" vertex="1" parent="EOrvkw3zUfeiwgOwcYgM-44">
          <mxGeometry x="420" y="280" width="120" height="60" as="geometry" />
        </mxCell>
        <mxCell id="EOrvkw3zUfeiwgOwcYgM-64" value="" style="endArrow=classic;html=1;rounded=0;edgeStyle=orthogonalEdgeStyle;exitX=0.5;exitY=1;exitDx=0;exitDy=0;entryX=0;entryY=0.5;entryDx=0;entryDy=0;" edge="1" parent="EOrvkw3zUfeiwgOwcYgM-44" source="EOrvkw3zUfeiwgOwcYgM-53" target="EOrvkw3zUfeiwgOwcYgM-63">
          <mxGeometry width="50" height="50" relative="1" as="geometry">
            <mxPoint x="130" y="340" as="sourcePoint" />
            <mxPoint x="270" y="320" as="targetPoint" />
          </mxGeometry>
        </mxCell>
        <mxCell id="EOrvkw3zUfeiwgOwcYgM-65" value="Przesył danych" style="text;html=1;strokeColor=none;fillColor=none;align=center;verticalAlign=middle;whiteSpace=wrap;rounded=0;" vertex="1" parent="EOrvkw3zUfeiwgOwcYgM-44">
          <mxGeometry x="235" y="280" width="90" height="30" as="geometry" />
        </mxCell>
        <mxCell id="EOrvkw3zUfeiwgOwcYgM-66" value="Pentesty" style="swimlane;strokeWidth=1;gradientColor=#ffd966;fillColor=#fff2cc;strokeColor=#d6b656;" vertex="1" parent="EOrvkw3zUfeiwgOwcYgM-44">
          <mxGeometry x="205" y="360" width="150" height="100" as="geometry" />
        </mxCell>
        <mxCell id="EOrvkw3zUfeiwgOwcYgM-67" value="Raporty" style="rounded=0;whiteSpace=wrap;html=1;strokeWidth=1;gradientColor=#ea6b66;fillColor=#f8cecc;strokeColor=#b85450;fontStyle=1" vertex="1" parent="EOrvkw3zUfeiwgOwcYgM-66">
          <mxGeometry x="15" y="30" width="120" height="60" as="geometry" />
        </mxCell>
        <mxCell id="EOrvkw3zUfeiwgOwcYgM-69" value="" style="endArrow=classic;html=1;rounded=0;edgeStyle=orthogonalEdgeStyle;entryX=1;entryY=0.5;entryDx=0;entryDy=0;" edge="1" parent="EOrvkw3zUfeiwgOwcYgM-44" target="EOrvkw3zUfeiwgOwcYgM-62">
          <mxGeometry width="50" height="50" relative="1" as="geometry">
            <mxPoint x="355" y="420" as="sourcePoint" />
            <mxPoint x="405" y="370" as="targetPoint" />
            <Array as="points">
              <mxPoint x="560" y="420" />
              <mxPoint x="560" y="230" />
            </Array>
          </mxGeometry>
        </mxCell>
        <mxCell id="EOrvkw3zUfeiwgOwcYgM-70" value="Aktualizacja" style="text;html=1;strokeColor=none;fillColor=none;align=center;verticalAlign=middle;whiteSpace=wrap;rounded=0;" vertex="1" parent="EOrvkw3zUfeiwgOwcYgM-44">
          <mxGeometry x="450" y="390" width="60" height="30" as="geometry" />
        </mxCell>
        <mxCell id="EOrvkw3zUfeiwgOwcYgM-45" value="Klient" style="shape=umlActor;verticalLabelPosition=bottom;verticalAlign=top;html=1;outlineConnect=0;strokeWidth=1;" vertex="1" parent="1">
          <mxGeometry x="880" y="115" width="30" height="60" as="geometry" />
        </mxCell>
        <mxCell id="EOrvkw3zUfeiwgOwcYgM-46" value="Kierowca" style="shape=umlActor;verticalLabelPosition=bottom;verticalAlign=top;html=1;outlineConnect=0;strokeWidth=1;" vertex="1" parent="1">
          <mxGeometry x="880" y="235" width="30" height="60" as="geometry" />
        </mxCell>
        <mxCell id="EOrvkw3zUfeiwgOwcYgM-48" value="" style="endArrow=classic;html=1;rounded=0;edgeStyle=orthogonalEdgeStyle;entryX=0.5;entryY=0.5;entryDx=0;entryDy=0;entryPerimeter=0;" edge="1" parent="1" target="EOrvkw3zUfeiwgOwcYgM-45">
          <mxGeometry width="50" height="50" relative="1" as="geometry">
            <mxPoint x="780" y="205" as="sourcePoint" />
            <mxPoint x="830" y="150" as="targetPoint" />
            <Array as="points">
              <mxPoint x="780" y="200" />
              <mxPoint x="840" y="200" />
              <mxPoint x="840" y="145" />
            </Array>
          </mxGeometry>
        </mxCell>
        <mxCell id="EOrvkw3zUfeiwgOwcYgM-50" value="" style="endArrow=classic;html=1;rounded=0;edgeStyle=orthogonalEdgeStyle;entryX=0.5;entryY=0.5;entryDx=0;entryDy=0;entryPerimeter=0;" edge="1" parent="1" target="EOrvkw3zUfeiwgOwcYgM-46">
          <mxGeometry width="50" height="50" relative="1" as="geometry">
            <mxPoint x="840" y="200" as="sourcePoint" />
            <mxPoint x="860" y="270" as="targetPoint" />
            <Array as="points">
              <mxPoint x="840" y="265" />
            </Array>
          </mxGeometry>
        </mxCell>
        <mxCell id="EOrvkw3zUfeiwgOwcYgM-51" value="Udostępnienie" style="text;html=1;strokeColor=none;fillColor=none;align=center;verticalAlign=middle;whiteSpace=wrap;rounded=0;" vertex="1" parent="1">
          <mxGeometry x="800" y="120" width="60" height="20" as="geometry" />
        </mxCell>
        <mxCell id="EOrvkw3zUfeiwgOwcYgM-52" value="Udostępnienie" style="text;html=1;strokeColor=none;fillColor=none;align=center;verticalAlign=middle;whiteSpace=wrap;rounded=0;" vertex="1" parent="1">
          <mxGeometry x="810" y="270" width="50" height="10" as="geometry" />
        </mxCell>
        <mxCell id="EOrvkw3zUfeiwgOwcYgM-72" value="Instrukcje" style="swimlane;strokeWidth=1;gradientColor=#97d077;fillColor=#d5e8d4;strokeColor=#82b366;" vertex="1" parent="1">
          <mxGeometry x="-1080" y="-410" width="440" height="200" as="geometry" />
        </mxCell>
        <mxCell id="EOrvkw3zUfeiwgOwcYgM-73" value="Korzystanie z interfacesu kierowcy" style="rounded=0;whiteSpace=wrap;html=1;strokeWidth=1;gradientColor=#ffd966;fillColor=#fff2cc;strokeColor=#d6b656;fontStyle=1" vertex="1" parent="EOrvkw3zUfeiwgOwcYgM-72">
          <mxGeometry x="20" y="40" width="120" height="60" as="geometry" />
        </mxCell>
        <mxCell id="EOrvkw3zUfeiwgOwcYgM-74" value="Bezpieczeństwo&amp;nbsp;&lt;br&gt;fizyczne" style="rounded=0;whiteSpace=wrap;html=1;strokeWidth=1;gradientColor=#ffd966;fillColor=#fff2cc;strokeColor=#d6b656;fontStyle=1" vertex="1" parent="EOrvkw3zUfeiwgOwcYgM-72">
          <mxGeometry x="160" y="40" width="120" height="60" as="geometry" />
        </mxCell>
        <mxCell id="EOrvkw3zUfeiwgOwcYgM-75" value="RODO" style="rounded=0;whiteSpace=wrap;html=1;strokeWidth=1;gradientColor=#ffd966;fillColor=#fff2cc;strokeColor=#d6b656;fontStyle=1" vertex="1" parent="EOrvkw3zUfeiwgOwcYgM-72">
          <mxGeometry x="300" y="40" width="120" height="60" as="geometry" />
        </mxCell>
        <mxCell id="EOrvkw3zUfeiwgOwcYgM-76" value="Polityka rozliczeniowa" style="rounded=0;whiteSpace=wrap;html=1;strokeWidth=1;gradientColor=#ffd966;fillColor=#fff2cc;strokeColor=#d6b656;fontStyle=1" vertex="1" parent="EOrvkw3zUfeiwgOwcYgM-72">
          <mxGeometry x="20" y="120" width="120" height="60" as="geometry" />
        </mxCell>
        <mxCell id="EOrvkw3zUfeiwgOwcYgM-77" value="Funkcjonowanie interfacesu" style="rounded=0;whiteSpace=wrap;html=1;strokeWidth=1;gradientColor=#ffd966;fillColor=#fff2cc;strokeColor=#d6b656;fontStyle=1" vertex="1" parent="EOrvkw3zUfeiwgOwcYgM-72">
          <mxGeometry x="160" y="120" width="120" height="60" as="geometry" />
        </mxCell>
        <mxCell id="EOrvkw3zUfeiwgOwcYgM-78" value="Regulamin i polityka firmy" style="rounded=0;whiteSpace=wrap;html=1;strokeWidth=1;gradientColor=#ffd966;fillColor=#fff2cc;strokeColor=#d6b656;fontStyle=1" vertex="1" parent="EOrvkw3zUfeiwgOwcYgM-72">
          <mxGeometry x="300" y="120" width="120" height="60" as="geometry" />
        </mxCell>
        <mxCell id="EOrvkw3zUfeiwgOwcYgM-79" value="Klient" style="shape=umlActor;verticalLabelPosition=bottom;verticalAlign=top;html=1;outlineConnect=0;strokeWidth=1;" vertex="1" parent="1">
          <mxGeometry x="-875" y="-190" width="30" height="60" as="geometry" />
        </mxCell>
        <mxCell id="EOrvkw3zUfeiwgOwcYgM-80" value="Kierowca" style="shape=umlActor;verticalLabelPosition=bottom;verticalAlign=top;html=1;outlineConnect=0;strokeWidth=1;" vertex="1" parent="1">
          <mxGeometry x="-875" y="-90" width="30" height="60" as="geometry" />
        </mxCell>
      </root>
    </mxGraphModel>
  </diagram>
</mxfile>
